<?xml version="1.0" standalone="no"?>
<!DOCTYPE svg PUBLIC "-//W3C//DTD SVG 20010904//EN"
 "http://www.w3.org/TR/2001/REC-SVG-20010904/DTD/svg10.dtd">
<svg version="1.0" xmlns="http://www.w3.org/2000/svg"
 width="1169.000000pt" height="1173.000000pt" viewBox="0 0 1169.000000 1173.000000"
 preserveAspectRatio="xMidYMid meet">

<g transform="translate(0.000000,1173.000000) scale(0.100000,-0.100000)"
fill="#000000" stroke="none">
<path d="M6200 9654 c-364 -24 -659 -77 -960 -170 -1238 -386 -2213 -1413
-2533 -2669 -194 -761 -153 -1556 119 -2287 57 -153 201 -452 293 -607 363
-613 920 -1129 1568 -1454 867 -436 1925 -516 2853 -215 604 195 1106 509
1560 974 690 707 1070 1645 1070 2639 0 868 -290 1693 -834 2374 -124 156
-424 458 -571 575 -238 188 -427 310 -685 439 -419 210 -826 331 -1286 381
-139 16 -488 27 -594 20z m303 -490 c12 -4 -6 -37 -73 -142 -117 -183 -292
-489 -396 -694 -46 -93 -88 -168 -92 -168 -19 0 -283 84 -365 116 -219 87
-418 207 -575 349 l-53 47 53 40 c260 195 624 350 967 413 181 34 490 56 534
39z m447 -60 c448 -104 855 -334 1176 -666 88 -92 218 -247 211 -254 -4 -5
-495 -69 -707 -93 -500 -57 -941 -58 -1310 -5 -119 17 -150 24 -150 32 0 11
164 320 248 467 47 83 145 241 219 353 l133 203 37 -6 c21 -4 85 -18 143 -31z
m-1906 -806 c165 -109 436 -229 683 -302 63 -19 117 -36 119 -38 2 -3 -27 -73
-65 -156 -38 -84 -102 -236 -142 -338 l-74 -185 -35 5 c-511 81 -799 116
-1176 143 l-243 17 6 25 c15 68 110 297 167 406 108 208 240 391 409 569 l75
79 92 -82 c52 -45 134 -109 184 -143z m3521 -491 c105 -219 172 -440 212 -697
21 -140 24 -499 5 -635 -19 -133 -53 -295 -63 -295 -5 0 -53 25 -106 56 -704
407 -1679 760 -2668 968 -119 25 -159 37 -157 47 8 32 110 277 191 459 58 132
91 195 101 194 8 -1 71 -11 140 -22 246 -41 334 -47 710 -47 441 1 479 4 1365
118 212 28 178 46 270 -146z m-4235 -597 c239 -16 528 -47 835 -91 292 -41
315 -45 315 -58 0 -5 -24 -75 -54 -157 -30 -82 -80 -236 -113 -342 l-58 -192
-70 7 c-38 5 -155 8 -260 7 -155 -1 -209 -5 -295 -23 -142 -30 -293 -81 -426
-145 l-111 -53 -16 71 c-40 170 -49 256 -54 476 -4 177 -2 254 11 359 10 73
20 139 23 147 4 10 20 12 61 9 32 -3 127 -10 212 -15z m1603 -226 c715 -154
1319 -347 1921 -614 303 -134 796 -397 796 -424 0 -22 -50 -136 -112 -260
-227 -445 -609 -826 -1055 -1049 -89 -45 -214 -99 -219 -94 -1 1 -30 47 -64
102 -571 911 -1123 1462 -1650 1646 -36 12 -68 25 -72 28 -8 7 93 340 166 549
59 167 57 162 68 162 5 0 105 -21 221 -46z m-752 -831 c6 -6 -8 -80 -41 -214
-62 -249 -139 -633 -175 -869 -15 -96 -28 -176 -30 -178 -6 -7 -135 107 -225
198 -191 192 -328 386 -451 635 -43 88 -81 174 -85 191 -6 31 -5 32 93 81 157
80 311 132 478 159 92 15 420 13 436 -3z m311 -77 c398 -149 809 -522 1233
-1117 124 -174 315 -468 315 -485 0 -6 -44 -21 -102 -33 -524 -112 -1029 -62
-1510 150 -88 39 -288 146 -288 154 0 56 90 589 136 805 31 144 117 503 129
538 6 17 15 15 87 -12z"/>
</g>
</svg>
