<?xml version="1.0" standalone="no"?>
<!DOCTYPE svg PUBLIC "-//W3C//DTD SVG 20010904//EN"
 "http://www.w3.org/TR/2001/REC-SVG-20010904/DTD/svg10.dtd">
<svg version="1.0" xmlns="http://www.w3.org/2000/svg"
 width="662.000000pt" height="596.000000pt" viewBox="0 0 662.000000 596.000000"
 preserveAspectRatio="xMidYMid meet">

<g transform="translate(0.000000,596.000000) scale(0.100000,-0.100000)"
fill="#000000" stroke="none">
<path d="M2520 5950 c0 -7 -423 -10 -1250 -10 l-1250 0 0 -2940 0 -2940 3286
0 c2834 0 3287 2 3300 14 21 22 21 5830 0 5852 -13 12 -194 14 -1260 14 -824
0 -1246 3 -1246 10 0 7 -270 10 -790 10 -520 0 -790 -3 -790 -10z m-1940 -590
c0 -353 3 -540 10 -540 6 0 10 -27 10 -60 0 -33 4 -60 10 -60 6 0 10 -22 10
-50 0 -27 5 -50 10 -50 6 0 10 -22 10 -50 0 -27 5 -50 10 -50 6 0 10 -13 10
-30 0 -16 5 -30 10 -30 6 0 10 -18 10 -40 0 -22 5 -40 10 -40 6 0 10 -13 10
-30 0 -16 5 -30 10 -30 6 0 10 -13 10 -30 0 -16 5 -30 10 -30 6 0 10 -13 10
-30 0 -16 5 -30 10 -30 6 0 10 -13 10 -30 0 -16 5 -30 10 -30 6 0 10 -9 10
-20 0 -11 5 -20 10 -20 6 0 10 -13 10 -30 0 -16 5 -30 10 -30 6 0 10 -9 10
-20 0 -11 5 -20 10 -20 6 0 10 -9 10 -20 0 -11 5 -20 10 -20 6 0 10 -13 10
-30 0 -16 5 -30 10 -30 6 0 10 -9 10 -20 0 -11 5 -20 10 -20 6 0 10 -9 10 -20
0 -11 5 -20 10 -20 6 0 10 -8 10 -18 0 -10 9 -24 20 -32 11 -8 20 -22 20 -32
0 -10 5 -18 10 -18 6 0 10 -9 10 -20 0 -11 5 -20 10 -20 6 0 10 -9 10 -20 0
-11 5 -20 10 -20 6 0 10 -8 10 -18 0 -10 9 -24 20 -32 11 -8 20 -21 20 -30 0
-9 9 -22 20 -30 11 -8 20 -21 20 -30 0 -9 9 -22 20 -30 11 -8 20 -21 20 -28 0
-8 13 -27 30 -42 16 -15 30 -33 30 -40 0 -7 13 -25 30 -40 16 -15 30 -33 30
-40 0 -6 22 -33 50 -60 27 -27 50 -54 50 -59 0 -15 186 -201 201 -201 5 0 32
-22 59 -50 27 -27 54 -50 60 -50 6 0 29 -18 50 -40 21 -22 45 -40 52 -40 7 0
20 -9 28 -20 8 -11 22 -20 32 -20 10 0 18 -4 18 -10 0 -5 8 -10 18 -10 10 0
24 -9 32 -20 8 -11 21 -20 30 -20 9 0 22 -9 30 -20 8 -11 22 -20 32 -20 10 0
18 -4 18 -10 0 -5 9 -10 20 -10 11 0 20 -4 20 -10 0 -5 8 -10 18 -10 10 0 24
-9 32 -20 8 -12 26 -20 42 -20 15 0 28 -4 28 -10 0 -5 9 -10 20 -10 11 0 20
-4 20 -10 0 -5 9 -10 20 -10 11 0 20 -4 20 -10 0 -5 14 -10 30 -10 17 0 30 -4
30 -10 0 -5 9 -10 20 -10 11 0 20 -4 20 -10 0 -5 14 -10 30 -10 17 0 30 -4 30
-10 0 -5 14 -10 30 -10 17 0 30 -4 30 -10 0 -5 14 -10 30 -10 17 0 30 -4 30
-10 0 -5 18 -10 40 -10 22 0 40 -4 40 -10 0 -5 23 -10 50 -10 28 0 50 -4 50
-10 0 -5 23 -10 50 -10 28 0 50 -4 50 -10 0 -6 27 -10 60 -10 33 0 60 -4 60
-10 0 -6 50 -10 130 -10 80 0 130 -4 130 -10 0 -6 50 -10 130 -10 80 0 130 4
130 10 0 6 43 10 110 10 67 0 110 4 110 10 0 6 27 10 60 10 33 0 60 4 60 10 0
6 27 10 60 10 33 0 60 4 60 10 0 6 18 10 40 10 22 0 40 5 40 10 0 6 18 10 40
10 22 0 40 5 40 10 0 6 14 10 30 10 17 0 30 5 30 10 0 6 14 10 30 10 17 0 30
5 30 10 0 6 14 10 30 10 17 0 30 5 30 10 0 6 14 10 30 10 17 0 30 5 30 10 0 6
9 10 20 10 11 0 20 5 20 10 0 6 9 10 20 10 11 0 20 5 20 10 0 6 9 10 20 10 11
0 20 5 20 10 0 6 13 10 28 10 16 0 34 8 42 20 8 11 22 20 32 20 10 0 18 5 18
10 0 6 9 10 20 10 11 0 20 5 20 10 0 6 8 10 18 10 10 0 24 9 32 20 8 11 21 20
30 20 9 0 22 9 30 20 8 11 22 20 32 20 10 0 18 5 18 10 0 6 8 10 18 10 10 0
24 9 32 20 8 11 21 20 28 20 7 0 31 18 52 40 21 22 44 40 50 40 6 0 33 23 60
50 27 28 54 50 60 50 14 0 120 106 120 120 0 6 36 46 80 90 44 44 80 84 80 90
0 7 18 29 40 50 22 21 40 44 40 50 0 7 14 25 30 40 17 15 30 35 30 44 0 9 5
16 10 16 6 0 10 8 10 18 0 10 9 24 20 32 11 8 20 21 20 30 0 9 9 22 20 30 11
8 20 21 20 30 0 9 9 22 20 30 11 8 20 22 20 32 0 10 5 18 10 18 6 0 10 9 10
20 0 11 5 20 10 20 6 0 10 9 10 20 0 11 5 20 10 20 6 0 10 9 10 20 0 11 5 20
10 20 6 0 10 9 10 20 0 11 5 20 10 20 6 0 10 9 10 20 0 11 5 20 10 20 6 0 10
9 10 20 0 11 5 20 10 20 6 0 10 9 10 20 0 11 5 20 10 20 6 0 10 14 10 30 0 17
5 30 10 30 6 0 10 9 10 20 0 11 5 20 10 20 6 0 10 9 10 20 0 11 5 20 10 20 6
0 10 14 10 30 0 17 5 30 10 30 6 0 10 14 10 30 0 17 5 30 10 30 6 0 10 9 10
20 0 11 5 20 10 20 6 0 10 14 10 30 0 17 5 30 10 30 6 0 10 14 10 30 0 17 5
30 10 30 6 0 10 18 10 40 0 22 5 40 10 40 6 0 10 18 10 40 0 22 5 40 10 40 6
0 10 18 10 40 0 22 5 40 10 40 6 0 10 23 10 50 0 28 5 50 10 50 6 0 10 30 10
70 0 40 4 70 10 70 6 0 10 43 10 110 0 67 4 110 10 110 7 0 10 147 10 420 l0
420 260 0 260 0 0 -2886 c0 -2487 -2 -2887 -14 -2900 -22 -21 -2430 -21 -2452
0 -9 10 -14 37 -14 80 0 37 -4 66 -10 66 -5 0 -10 14 -10 30 0 17 -4 30 -10
30 -5 0 -10 14 -10 30 0 17 -4 30 -10 30 -5 0 -10 9 -10 20 0 11 -4 20 -10 20
-5 0 -10 9 -10 20 0 11 -4 20 -10 20 -5 0 -10 9 -10 20 0 11 -4 20 -10 20 -5
0 -10 7 -10 16 0 8 -18 33 -40 54 -22 21 -40 44 -40 50 0 15 -25 40 -40 40 -6
0 -33 23 -60 50 -27 28 -56 50 -64 50 -9 0 -16 5 -16 10 0 6 -9 10 -20 10 -11
0 -20 5 -20 10 0 6 -9 10 -20 10 -11 0 -20 5 -20 10 0 6 -9 10 -20 10 -11 0
-20 5 -20 10 0 6 -13 10 -30 10 -16 0 -30 5 -30 10 0 6 -18 10 -40 10 -22 0
-40 5 -40 10 0 6 -57 10 -150 10 -93 0 -150 -4 -150 -10 0 -5 -13 -10 -30 -10
-16 0 -30 -4 -30 -10 0 -5 -18 -10 -40 -10 -22 0 -40 -4 -40 -10 0 -5 -9 -10
-20 -10 -11 0 -20 -4 -20 -10 0 -5 -9 -10 -20 -10 -11 0 -20 -4 -20 -10 0 -5
-8 -10 -18 -10 -10 0 -24 -9 -32 -20 -8 -11 -20 -20 -27 -20 -19 0 -223 -207
-223 -225 0 -8 -4 -15 -10 -15 -5 0 -10 -9 -10 -20 0 -11 -4 -20 -10 -20 -5 0
-10 -9 -10 -20 0 -11 -4 -20 -10 -20 -5 0 -10 -9 -10 -20 0 -11 -4 -20 -10
-20 -5 0 -10 -13 -10 -30 0 -16 -4 -30 -10 -30 -5 0 -10 -18 -10 -40 0 -22 -4
-40 -10 -40 -6 0 -10 -30 -10 -70 l0 -70 -1230 0 -1230 0 0 2900 0 2900 260 0
260 0 0 -540z m1940 -620 c0 -767 -3 -1160 -10 -1160 -5 0 -10 -9 -10 -20 0
-11 5 -20 10 -20 6 0 10 -33 10 -80 0 -47 4 -80 10 -80 6 0 10 -13 10 -30 0
-16 5 -30 10 -30 6 0 10 -13 10 -30 0 -16 5 -30 10 -30 6 0 10 -9 10 -20 0
-11 5 -20 10 -20 6 0 10 -9 10 -20 0 -11 5 -20 10 -20 6 0 10 -9 10 -20 0 -11
5 -20 10 -20 6 0 10 -7 10 -16 0 -9 14 -29 30 -44 17 -15 30 -33 30 -39 0 -15
86 -101 101 -101 6 0 28 -18 49 -40 21 -22 46 -40 54 -40 9 0 16 -4 16 -10 0
-5 9 -10 20 -10 11 0 20 -4 20 -10 0 -5 9 -10 20 -10 11 0 20 -4 20 -10 0 -5
14 -10 30 -10 17 0 30 -4 30 -10 0 -5 18 -10 40 -10 22 0 40 -4 40 -10 0 -6
30 -10 70 -10 40 0 70 -4 70 -10 0 -5 14 -10 30 -10 17 0 30 5 30 10 0 6 30
10 70 10 40 0 70 4 70 10 0 6 18 10 40 10 22 0 40 5 40 10 0 6 14 10 30 10 17
0 30 5 30 10 0 6 9 10 20 10 11 0 20 5 20 10 0 6 8 10 18 10 10 0 24 9 32 20
8 11 21 20 28 20 8 0 27 14 42 30 15 17 33 30 39 30 15 0 121 106 121 121 0 6
13 24 30 39 16 15 30 35 30 44 0 9 5 16 10 16 6 0 10 9 10 20 0 11 5 20 10 20
6 0 10 9 10 20 0 11 5 20 10 20 6 0 10 14 10 30 0 17 5 30 10 30 6 0 10 18 10
40 0 22 5 40 10 40 6 0 10 33 10 80 0 47 4 80 10 80 7 0 10 400 10 1180 l0
1180 950 0 950 0 0 -430 c0 -280 -3 -430 -10 -430 -6 0 -10 -43 -10 -110 0
-67 -4 -110 -10 -110 -6 0 -10 -27 -10 -60 0 -33 -4 -60 -10 -60 -5 0 -10 -22
-10 -50 0 -27 -4 -50 -10 -50 -5 0 -10 -18 -10 -40 0 -22 -4 -40 -10 -40 -5 0
-10 -18 -10 -40 0 -22 -4 -40 -10 -40 -5 0 -10 -13 -10 -30 0 -16 -4 -30 -10
-30 -5 0 -10 -18 -10 -40 0 -22 -4 -40 -10 -40 -5 0 -10 -9 -10 -20 0 -11 -4
-20 -10 -20 -5 0 -10 -13 -10 -30 0 -16 -4 -30 -10 -30 -5 0 -10 -13 -10 -30
0 -16 -4 -30 -10 -30 -5 0 -10 -13 -10 -30 0 -16 -4 -30 -10 -30 -5 0 -10 -9
-10 -20 0 -11 -4 -20 -10 -20 -5 0 -10 -9 -10 -20 0 -11 -4 -20 -10 -20 -5 0
-10 -13 -10 -30 0 -16 -4 -30 -10 -30 -5 0 -10 -9 -10 -20 0 -11 -4 -20 -10
-20 -5 0 -10 -9 -10 -20 0 -11 -4 -20 -10 -20 -5 0 -10 -9 -10 -20 0 -11 -4
-20 -10 -20 -5 0 -10 -9 -10 -20 0 -11 -4 -20 -10 -20 -5 0 -10 -9 -10 -20 0
-11 -4 -20 -10 -20 -5 0 -10 -8 -10 -18 0 -10 -9 -24 -20 -32 -11 -8 -20 -22
-20 -32 0 -10 -4 -18 -10 -18 -5 0 -10 -8 -10 -18 0 -10 -9 -24 -20 -32 -11
-8 -20 -21 -20 -30 0 -9 -9 -22 -20 -30 -11 -8 -20 -22 -20 -32 0 -10 -4 -18
-10 -18 -5 0 -10 -7 -10 -16 0 -9 -14 -29 -30 -44 -17 -15 -30 -33 -30 -40 0
-7 -13 -25 -30 -40 -16 -15 -30 -33 -30 -40 0 -6 -18 -29 -40 -50 -22 -21 -40
-43 -40 -49 0 -14 -246 -261 -261 -261 -5 0 -32 -23 -59 -50 -27 -28 -54 -50
-60 -50 -7 0 -25 -13 -40 -30 -15 -16 -34 -30 -42 -30 -7 0 -20 -9 -28 -20 -8
-11 -21 -20 -30 -20 -9 0 -22 -9 -30 -20 -8 -11 -22 -20 -32 -20 -10 0 -18 -4
-18 -10 0 -5 -8 -10 -18 -10 -10 0 -24 -9 -32 -20 -8 -11 -22 -20 -32 -20 -10
0 -18 -4 -18 -10 0 -5 -9 -10 -20 -10 -11 0 -20 -4 -20 -10 0 -5 -9 -10 -20
-10 -11 0 -20 -4 -20 -10 0 -5 -9 -10 -20 -10 -11 0 -20 -4 -20 -10 0 -5 -9
-10 -20 -10 -11 0 -20 -4 -20 -10 0 -5 -9 -10 -20 -10 -11 0 -20 -4 -20 -10 0
-5 -13 -10 -30 -10 -16 0 -30 -4 -30 -10 0 -5 -9 -10 -20 -10 -11 0 -20 -4
-20 -10 0 -5 -13 -10 -30 -10 -16 0 -30 -4 -30 -10 0 -5 -13 -10 -30 -10 -16
0 -30 -4 -30 -10 0 -5 -13 -10 -30 -10 -16 0 -30 -4 -30 -10 0 -5 -18 -10 -40
-10 -22 0 -40 -4 -40 -10 0 -5 -18 -10 -40 -10 -22 0 -40 -4 -40 -10 0 -5 -22
-10 -50 -10 -27 0 -50 -4 -50 -10 0 -6 -30 -10 -70 -10 -40 0 -70 -4 -70 -10
0 -6 -60 -10 -160 -10 -100 0 -160 -4 -160 -10 0 -5 -22 -10 -50 -10 -27 0
-50 5 -50 10 0 6 -60 10 -160 10 -100 0 -160 4 -160 10 0 6 -27 10 -60 10 -33
0 -60 4 -60 10 0 6 -27 10 -60 10 -33 0 -60 4 -60 10 0 6 -18 10 -40 10 -22 0
-40 5 -40 10 0 6 -18 10 -40 10 -22 0 -40 5 -40 10 0 6 -13 10 -30 10 -16 0
-30 5 -30 10 0 6 -13 10 -30 10 -16 0 -30 5 -30 10 0 6 -13 10 -30 10 -16 0
-30 5 -30 10 0 6 -9 10 -20 10 -11 0 -20 5 -20 10 0 6 -13 10 -30 10 -16 0
-30 5 -30 10 0 6 -9 10 -20 10 -11 0 -20 5 -20 10 0 6 -9 10 -20 10 -11 0 -20
5 -20 10 0 6 -9 10 -20 10 -11 0 -20 5 -20 10 0 6 -9 10 -20 10 -11 0 -20 5
-20 10 0 6 -9 10 -20 10 -11 0 -20 5 -20 10 0 6 -8 10 -18 10 -10 0 -24 9 -32
20 -8 11 -22 20 -32 20 -10 0 -18 5 -18 10 0 6 -8 10 -18 10 -10 0 -24 9 -32
20 -8 11 -21 20 -30 20 -9 0 -22 9 -30 20 -8 11 -21 20 -28 20 -8 0 -27 14
-42 30 -15 17 -33 30 -40 30 -6 0 -33 23 -60 50 -27 28 -54 50 -59 50 -15 0
-281 267 -281 281 0 6 -18 28 -40 49 -22 21 -40 44 -40 50 0 7 -14 25 -30 40
-17 15 -30 34 -30 42 0 7 -9 20 -20 28 -11 8 -20 21 -20 30 0 9 -9 22 -20 30
-11 8 -20 21 -20 30 0 9 -9 22 -20 30 -11 8 -20 21 -20 30 0 9 -9 22 -20 30
-11 8 -20 22 -20 32 0 10 -4 18 -10 18 -5 0 -10 9 -10 20 0 11 -4 20 -10 20
-5 0 -10 9 -10 20 0 11 -4 20 -10 20 -5 0 -10 9 -10 20 0 11 -4 20 -10 20 -5
0 -10 8 -10 18 0 10 -9 24 -20 32 -12 8 -20 26 -20 42 0 15 -4 28 -10 28 -5 0
-10 9 -10 20 0 11 -4 20 -10 20 -5 0 -10 9 -10 20 0 11 -4 20 -10 20 -5 0 -10
9 -10 20 0 11 -4 20 -10 20 -5 0 -10 14 -10 30 0 17 -4 30 -10 30 -5 0 -10 9
-10 20 0 11 -4 20 -10 20 -5 0 -10 14 -10 30 0 17 -4 30 -10 30 -5 0 -10 14
-10 30 0 17 -4 30 -10 30 -5 0 -10 14 -10 30 0 17 -4 30 -10 30 -5 0 -10 14
-10 30 0 17 -4 30 -10 30 -5 0 -10 14 -10 30 0 17 -4 30 -10 30 -5 0 -10 18
-10 40 0 22 -4 40 -10 40 -5 0 -10 18 -10 40 0 22 -4 40 -10 40 -5 0 -10 23
-10 50 0 28 -4 50 -10 50 -6 0 -10 27 -10 60 0 33 -4 60 -10 60 -7 0 -10 190
-10 550 l0 550 950 0 950 0 0 -1160z m1560 94 l0 -1067 -22 -20 c-16 -13 -19
-21 -10 -24 6 -3 12 -13 12 -24 0 -10 5 -19 10 -19 6 0 10 -13 10 -30 0 -16
-4 -30 -10 -30 -5 0 -10 -9 -10 -20 0 -20 -7 -20 -750 -20 l-750 0 0 70 c0 40
4 70 10 70 6 0 10 9 10 20 0 11 -4 20 -10 20 -5 0 -10 18 -10 40 0 22 5 40 10
40 6 0 10 -4 10 -10 0 -5 5 -10 10 -10 6 0 10 9 10 20 0 11 5 20 10 20 6 0 10
9 10 20 0 13 -7 20 -20 20 -13 0 -20 -7 -20 -20 0 -11 -4 -20 -10 -20 -7 0
-10 347 -10 1020 l0 1020 760 0 760 0 0 -1066z m0 -1304 c0 -5 -4 -10 -10 -10
-6 0 -10 -30 -10 -70 0 -40 -4 -70 -10 -70 -5 0 -10 -18 -10 -40 0 -22 -4 -40
-10 -40 -5 0 -10 -13 -10 -30 0 -16 -4 -30 -10 -30 -5 0 -10 -8 -10 -18 0 -10
-9 -24 -20 -32 -11 -8 -20 -22 -20 -32 0 -10 -4 -18 -10 -18 -5 0 -10 -7 -10
-15 0 -20 -185 -205 -205 -205 -8 0 -15 -4 -15 -10 0 -5 -9 -10 -20 -10 -11 0
-20 -4 -20 -10 0 -5 -9 -10 -20 -10 -11 0 -20 -4 -20 -10 0 -5 -9 -10 -20 -10
-11 0 -20 -4 -20 -10 0 -5 -9 -10 -20 -10 -11 0 -20 -4 -20 -10 0 -5 -18 -10
-40 -10 -22 0 -40 -4 -40 -10 0 -6 -30 -10 -70 -10 -40 0 -70 -4 -70 -10 0 -5
-9 -10 -20 -10 -11 0 -20 5 -20 10 0 6 -33 10 -80 10 -47 0 -80 4 -80 10 0 6
-18 10 -40 10 -22 0 -40 5 -40 10 0 6 -13 10 -28 10 -16 0 -34 8 -42 20 -8 11
-22 20 -32 20 -10 0 -18 5 -18 10 0 6 -9 10 -20 10 -11 0 -20 5 -20 10 0 6 -7
10 -15 10 -19 0 -185 164 -185 183 0 7 -9 19 -20 27 -11 8 -20 22 -20 32 0 10
-4 18 -10 18 -5 0 -10 9 -10 20 0 11 -4 20 -10 20 -5 0 -10 9 -10 20 0 11 -4
20 -10 20 -5 0 -10 14 -10 30 0 17 -4 30 -10 30 -5 0 -10 14 -10 30 0 17 -4
30 -10 30 -6 0 -10 33 -10 80 l0 80 760 0 c500 0 760 -3 760 -10z m-620 -2700
c0 -5 18 -10 40 -10 22 0 40 -4 40 -10 0 -5 14 -10 30 -10 17 0 30 -4 30 -10
0 -5 9 -10 20 -10 11 0 20 -4 20 -10 0 -5 8 -10 18 -10 10 0 24 -9 32 -20 8
-11 21 -20 30 -20 9 0 22 -9 30 -20 8 -11 20 -20 27 -20 17 0 143 -126 143
-143 0 -7 9 -19 20 -27 11 -8 20 -22 20 -32 0 -10 5 -18 10 -18 6 0 10 -9 10
-20 0 -11 5 -20 10 -20 6 0 10 -9 10 -20 0 -11 5 -20 10 -20 6 0 10 -13 10
-30 0 -16 5 -30 10 -30 6 0 10 -13 10 -30 0 -16 5 -30 10 -30 6 0 10 -33 10
-80 l0 -80 -750 0 -750 0 0 70 c0 40 4 70 10 70 6 0 10 18 10 40 0 22 5 40 10
40 6 0 10 14 10 30 0 17 5 30 10 30 6 0 10 9 10 20 0 11 5 20 10 20 6 0 10 9
10 20 0 11 5 20 10 20 6 0 10 7 10 16 0 9 14 29 30 44 17 15 30 33 30 39 0 15
86 101 101 101 6 0 24 14 39 30 15 17 35 30 44 30 9 0 16 5 16 10 0 6 9 10 20
10 11 0 20 5 20 10 0 6 8 10 18 10 10 0 24 9 32 20 10 14 26 20 52 20 21 0 38
5 38 10 0 6 14 10 30 10 17 0 30 5 30 10 0 6 57 10 150 10 93 0 150 -4 150
-10z"/>
<path d="M2860 5480 c0 -19 7 -20 190 -20 105 0 190 -4 190 -8 0 -4 -9 -14
-20 -22 -16 -12 -20 -26 -20 -78 0 -65 13 -92 44 -92 9 0 16 -4 16 -10 0 -5 9
-10 19 -10 11 0 22 -6 25 -12 5 -10 7 -10 12 0 3 6 17 12 30 12 37 0 74 42 74
84 0 19 6 37 13 40 10 5 10 7 0 12 -7 3 -13 19 -13 35 0 16 -4 29 -10 29 -5 0
-10 5 -10 10 0 6 67 10 180 10 173 0 180 1 180 20 0 20 -7 20 -450 20 -443 0
-450 0 -450 -20z m506 -54 c8 -8 14 -22 14 -30 0 -9 5 -16 10 -16 6 0 10 -9
10 -20 0 -11 -4 -20 -10 -20 -5 0 -10 -7 -10 -16 0 -20 -24 -44 -43 -44 -9 0
-18 -6 -21 -12 -5 -10 -7 -10 -12 0 -3 6 -12 12 -21 12 -28 0 -43 28 -43 80 0
28 6 57 13 65 16 19 94 19 113 1z"/>
<path d="M3200 4340 c0 -17 7 -20 40 -20 33 0 40 3 40 20 0 17 -7 20 -40 20
-33 0 -40 -3 -40 -20z"/>
<path d="M3340 4354 c0 -14 31 -34 54 -34 19 0 26 5 26 20 0 17 -7 20 -40 20
-22 0 -40 -3 -40 -6z"/>
<path d="M3073 4325 c-20 -22 -16 -25 27 -25 33 0 40 3 40 20 0 15 -7 20 -27
20 -16 -1 -34 -7 -40 -15z"/>
<path d="M3480 4320 c0 -17 7 -20 40 -20 43 0 47 4 26 26 -23 22 -66 18 -66
-6z"/>
<path d="M2980 4290 c0 -5 -9 -10 -20 -10 -13 0 -20 -7 -20 -20 0 -23 25 -27
46 -6 16 17 19 46 4 46 -5 0 -10 -4 -10 -10z"/>
<path d="M3620 4274 c0 -3 6 -12 14 -20 21 -21 46 -17 46 6 0 16 -7 20 -30 20
-16 0 -30 -3 -30 -6z"/>
<path d="M2833 4205 c-31 -34 1 -63 33 -31 8 8 14 22 14 30 0 20 -31 20 -47 1z"/>
<path d="M3740 4204 c0 -8 6 -22 14 -30 8 -8 22 -14 30 -14 20 0 21 27 2 46
-19 19 -46 18 -46 -2z"/>
<path d="M2733 4105 c-13 -14 -18 -45 -8 -45 3 0 17 11 30 25 14 13 25 27 25
30 0 11 -35 4 -47 -10z"/>
<path d="M3840 4115 c0 -3 11 -17 25 -30 31 -32 35 -31 35 5 0 27 -3 30 -30
30 -16 0 -30 -2 -30 -5z"/>
<path d="M2640 4000 c0 -11 -4 -20 -10 -20 -5 0 -10 -4 -10 -10 0 -15 29 -12
46 4 21 21 17 46 -6 46 -13 0 -20 -7 -20 -20z"/>
<path d="M3940 4000 c0 -11 5 -20 10 -20 6 0 10 -9 10 -20 0 -24 6 -25 28 -3
12 12 13 18 4 21 -6 2 -12 12 -12 23 0 12 -7 19 -20 19 -13 0 -20 -7 -20 -20z"/>
<path d="M4010 3883 c-10 -12 -11 -18 -2 -21 7 -2 12 -12 12 -23 0 -12 7 -19
20 -19 13 0 20 7 20 20 0 11 -4 20 -10 20 -5 0 -10 9 -10 20 0 24 -10 25 -30
3z"/>
</g>
</svg>
